<svg width="800" height="200" viewBox="0 0 800 200" fill="none" xmlns="http://www.w3.org/2000/svg">
  <rect width="800" height="200" rx="12" fill="#0a0a0b"/>

  <!-- Logo: Text Lines I with cursor -->
  <g transform="translate(55, 40)">
    <rect x="0" y="0" width="68" height="4" rx="2" fill="#c4b5fd"/>
    <rect x="0" y="10" width="68" height="4" rx="2" fill="#c4b5fd" opacity="0.5"/>
    <rect x="17" y="22" width="34" height="4" rx="2" fill="#7c3aed"/>
    <rect x="17" y="32" width="34" height="4" rx="2" fill="#7c3aed"/>
    <rect x="17" y="42" width="16" height="4" rx="2" fill="#7c3aed"/>
    <rect x="36" y="40" width="2.5" height="9" rx="1.25" fill="#c4b5fd">
      <animate attributeName="opacity" values="1;0;1" dur="1.1s" repeatCount="indefinite"/>
    </rect>
    <rect x="17" y="54" width="34" height="4" rx="2" fill="#7c3aed"/>
    <rect x="17" y="64" width="34" height="4" rx="2" fill="#7c3aed"/>
    <rect x="0" y="76" width="68" height="4" rx="2" fill="#c4b5fd" opacity="0.5"/>
    <rect x="0" y="86" width="68" height="4" rx="2" fill="#c4b5fd"/>
  </g>

  <!-- Text -->
  <text x="155" y="82" font-family="Inter, -apple-system, BlinkMacSystemFont, sans-serif" font-size="48" font-weight="700" fill="#e0e0e2" letter-spacing="-1">Inku</text>
  <text x="155" y="110" font-family="Inter, -apple-system, BlinkMacSystemFont, sans-serif" font-size="16" fill="#8a8a90">The cleanest markdown editor</text>
</svg>
