<svg width="800" height="200" viewBox="0 0 800 200" fill="none" xmlns="http://www.w3.org/2000/svg">
  <rect width="800" height="200" rx="12" fill="#0a0a0b"/>
  <!-- Logo ink drop -->
  <path d="M80 30 C80 30, 58 58, 58 72 C58 84.15 67.85 94 80 94 C92.15 94 102 84.15 102 72 C102 58, 80 30, 80 30Z" fill="#7c3aed"/>
  <ellipse cx="72" cy="66" rx="5" ry="8" fill="#c4b5fd" opacity="0.3" transform="rotate(-15 72 66)"/>
  <rect x="74" y="58" width="12" height="26" rx="2" fill="white"/>
  <rect x="72" y="55" width="16" height="6" rx="2" fill="white"/>
  <rect x="72" y="81" width="16" height="6" rx="2" fill="white"/>
  <!-- Text -->
  <text x="130" y="78" font-family="Inter, -apple-system, BlinkMacSystemFont, sans-serif" font-size="48" font-weight="700" fill="#e0e0e2" letter-spacing="-1">Inku</text>
  <text x="130" y="105" font-family="Inter, -apple-system, BlinkMacSystemFont, sans-serif" font-size="16" fill="#8a8a90">The cleanest markdown editor</text>
  <!-- Accent dots -->
  <circle cx="720" cy="60" r="4" fill="#c4b5fd" opacity="0.4"/>
  <circle cx="740" cy="50" r="3" fill="#7c3aed" opacity="0.3"/>
  <circle cx="730" cy="75" r="2" fill="#c4b5fd" opacity="0.2"/>
</svg>
